#!OML:ASF F:\VICON\USERDATA\INSTALL\rory3\rory3.ASF
:FULLY-SPECIFIED
:DEGREES
593
root 2.36755 17.9712 6.94134 17.2338 29.4874 3.57541
lowerback 25.5857 2.6429 -0.393313
upperback 8.79154 3.65383 2.39817
thorax -4.63214 1.82878 1.77482
lowerneck -12.8591 -6.67849 -14.3619
upperneck 34.1111 -6.99416 5.36346
head 14.7454 -3.94335 3.5978
rclavicle -2.06736e-014 7.23576e-014
rhumerus 0.83001 17.7366 -78.1685
rradius 49.9734
rwrist 25.0336
rhand -50.949 26.1467
rfingers 7.12502
rthumb -23.4997 -2.43791
lclavicle -2.06736e-014 7.23576e-014
lhumerus -23.8253 -34.8404 99.8445
lradius 78.0942
lwrist 12.7894
lhand -30.5338 37.3658
lfingers 7.12502
lthumb -3.83298 67.3111
rfemur -35.4838 -13.8736 17.5943
rtibia 35.5437
rfoot -9.49626 -12.8143
rtoes -0.376996
lfemur -32.4957 -2.90805 -20.1797
ltibia 22.4827
lfoot -2.07355 -6.65759
ltoes -3.15471
594
root 2.342 17.9557 6.90501 17.6327 29.7878 3.63266
lowerback 26.2917 2.6135 -0.225816
upperback 9.01389 3.67636 2.54945
thorax -4.7298 1.8411 1.81782
lowerneck -13.1708 -6.80665 -14.4899
upperneck 33.9024 -7.08741 5.34287
head 14.7397 -3.99215 3.58169
rclavicle 7.31528e-014 -8.11041e-014
rhumerus 2.06604 17.2748 -77.6156
rradius 49.0037
rwrist 25.0329
rhand -51.1035 26.432
rfingers 7.12502
rthumb -23.6479 -2.1336
lclavicle 7.31528e-014 -8.11041e-014
lhumerus -23.6274 -35.4272 99.7993
lradius 78.0543
lwrist 12.5372
lhand -30.5187 37.7793
lfingers 7.12502
lthumb -3.81834 67.7248
rfemur -36.22 -14.176 17.7433
rtibia 35.9055
rfoot -9.50612 -12.673
rtoes 0.103825
lfemur -33.2503 -2.86975 -20.2124
ltibia 22.7238
lfoot -1.96336 -6.93536
ltoes -3.20296
595
root 2.31762 17.9416 6.86715 18.1612 30.0547 3.79918
lowerback 26.9565 2.50806 -0.180089
upperback 9.15272 3.57314 2.67682
thorax -4.8972 1.79134 1.94274
lowerneck -13.4004 -6.82265 -14.674
upperneck 33.7262 -7.00578 5.30026
head 14.7098 -3.9791 3.59958
rclavicle -7.79236e-014 4.13472e-014
rhumerus 3.20166 16.9671 -77.2433
rradius 48.0487
rwrist 25.1462
rhand -51.1916 27.272
rfingers 7.12502
rthumb -23.7324 -1.28259
lclavicle -7.79236e-014 4.13472e-014
lhumerus -23.5594 -35.5955 99.8108
lradius 78.005
lwrist 12.0581
lhand -30.3349 37.6282
lfingers 7.12502
lthumb -3.64089 67.5769
rfemur -37.0535 -14.4061 17.7627
rtibia 36.2945
rfoot -9.65225 -12.6159
rtoes 1.54925
lfemur -34.0837 -2.83097 -20.369
ltibia 22.9781
lfoot -1.87135 -7.24254
ltoes -3.35564
596
root 2.29427 17.9249 6.83222 18.7973 30.1898 3.98777
lowerback 27.5059 2.52572 -0.144833
upperback 9.23993 3.61391 2.71168
thorax -5.06454 1.81109 1.93219
lowerneck -13.354 -6.89546 -14.7453
upperneck 33.4064 -7.13346 5.41351
head 14.5769 -4.02116 3.62921
rclavicle 2.54444e-014 3.33958e-014
rhumerus 4.15048 16.3022 -77.0396
rradius 47.0826
rwrist 25.5236
rhand -51.0581 27.8903
rfingers 7.12502
rthumb -23.6043 -0.680941
lclavicle 2.54444e-014 3.33958e-014
lhumerus -23.6932 -36.0446 99.8697
lradius 78.0062
lwrist 11.8493
lhand -29.9492 37.4167
lfingers 7.12502
lthumb -3.26839 67.3714
rfemur -38.0661 -14.6666 17.8305
rtibia 36.724
rfoot -9.65848 -12.5083
rtoes 1.7437
lfemur -34.9941 -2.73698 -20.5665
ltibia 23.2063
lfoot -1.71159 -7.53383
ltoes -2.92927
597
root 2.27164 17.9075 6.79786 19.3259 30.3634 4.10267
lowerback 28.1206 2.60057 0.0890363
upperback 9.38117 3.77802 2.72621
thorax -5.19228 1.89225 1.74532
lowerneck -13.2895 -7.09573 -14.7567
upperneck 32.9418 -7.47769 5.56768
head 14.4025 -4.14024 3.62372
rclavicle -2.06736e-014 -1.27222e-014
rhumerus 5.16765 15.4068 -76.7104
rradius 46.1168
rwrist 25.6715
rhand -50.5704 28.0853
rfingers 7.12502
rthumb -23.1365 -0.545395
lclavicle -2.06736e-014 -1.27222e-014
lhumerus -23.6996 -36.9125 99.9043
lradius 77.8826
lwrist 11.6331
lhand -29.2822 37.1165
lfingers 7.12502
lthumb -2.62426 67.0801
rfemur -38.9935 -14.9604 17.9873
rtibia 37.1463
rfoot -9.63956 -12.4274
rtoes 1.41697
lfemur -35.8212 -2.64098 -20.7041
ltibia 23.4089
lfoot -1.57325 -7.81028
ltoes -2.60947
598
root 2.24865 17.8923 6.76387 19.8262 30.6322 4.15002
lowerback 28.6725 2.55528 0.317727
upperback 9.55758 3.80209 2.85685
thorax -5.25125 1.9055 1.73607
lowerneck -13.3035 -7.24225 -15.1175
upperneck 32.4159 -7.65339 5.77777
head 14.2243 -4.22309 3.72595
rclavicle 9.54166e-014 1.43125e-014
rhumerus 6.34799 15.0122 -76.2188
rradius 45.2292
rwrist 25.3839
rhand -50.4043 27.7457
rfingers 7.12502
rthumb -22.9771 -0.904923
lclavicle 9.54166e-014 1.43125e-014
lhumerus -23.4419 -37.2644 99.8903
lradius 77.5616
lwrist 10.7119
lhand -28.027 35.8521
lfingers 7.12502
lthumb -1.41195 65.8272
rfemur -39.893 -15.0954 18.1596
rtibia 37.5904
rfoot -9.67743 -12.5563
rtoes 1.3265
lfemur -36.6993 -2.62143 -20.7333
ltibia 23.6681
lfoot -1.43799 -8.08907
ltoes -1.93739
599
root 2.22324 17.877 6.73103 20.4458 30.8624 4.14133
lowerback 28.9651 2.52624 0.466968
upperback 9.74877 3.82388 3.00672
thorax -5.17618 1.91721 1.80395
lowerneck -13.4203 -7.35811 -15.2631
upperneck 31.9529 -7.76111 5.78572
head 14.0679 -4.27549 3.71926
rclavicle 3.02153e-014 -6.83819e-014
rhumerus 7.56044 14.6118 -75.7804
rradius 44.3423
rwrist 25.3543
rhand -50.7758 27.3964
rfingers 7.12502
rthumb -23.3335 -1.20943
lclavicle 3.02153e-014 -6.83819e-014
lhumerus -23.1767 -37.6215 99.7419
lradius 77.3518
lwrist 9.86147
lhand -27.2505 34.4977
lfingers 7.12502
lthumb -0.662019 64.4764
rfemur -40.9928 -15.0348 18.3642
rtibia 38.0929
rfoot -9.72923 -12.8133
rtoes 1.48976
lfemur -37.7967 -2.61011 -20.6832
ltibia 24.031
lfoot -1.35705 -8.33832
ltoes -1.31423
600
root 2.20134 17.8507 6.69768 21.1922 31.0669 4.20357
lowerback 29.1082 2.49603 0.592043
upperback 9.94922 3.83321 3.13493
thorax -5.01963 1.92353 1.87136
lowerneck -13.6908 -7.47233 -15.198
upperneck 31.6153 -7.82362 5.56035
head 13.9728 -4.31177 3.58919
rclavicle -1.43125e-014 2.8625e-014
rhumerus 8.78247 14.0464 -75.3994
rradius 43.4274
rwrist 25.6386
rhand -51.121 27.4696
rfingers 7.12502
rthumb -23.6646 -1.09377
lclavicle -1.43125e-014 2.8625e-014
lhumerus -22.9487 -38.1419 99.6033
lradius 77.3706
lwrist 9.43485
lhand -26.8619 33.9363
lfingers 7.12502
lthumb -0.286731 63.9159
rfemur -42.2881 -15.2606 18.6319
rtibia 38.6718
rfoot -9.7554 -12.785
rtoes 1.40258
lfemur -39.039 -2.61455 -20.7023
ltibia 24.4898
lfoot -1.30956 -8.54574
ltoes -0.62883
601
root 2.18732 17.8159 6.66098 21.8899 31.3856 4.33907
lowerback 29.4553 2.37177 0.937301
upperback 10.0844 3.78632 3.20814
thorax -5.0114 1.90568 1.762
lowerneck -13.8914 -7.58155 -15.2402
upperneck 31.3138 -7.9061 5.47771
head 13.8946 -4.35313 3.53542
rclavicle -3.33958e-014 0
rhumerus 9.87413 13.3312 -75.1453
rradius 42.5509
rwrist 25.77
rhand -51.1954 27.8325
rfingers 7.12502
rthumb -23.736 -0.721628
lclavicle -3.33958e-014 0
lhumerus -22.824 -38.7061 99.5986
lradius 77.4416
lwrist 9.10467
lhand -26.4873 33.6113
lfingers 7.12502
lthumb 0.0750931 63.591
rfemur -43.5776 -16.0297 19.0112
rtibia 39.3276
rfoot -9.80931 -12.3808
rtoes 1.00984
lfemur -40.2339 -2.57027 -20.8747
ltibia 25.028
lfoot -1.3047 -8.95241
ltoes -0.198471
602
root 2.17307 17.7829 6.62736 22.5038 31.5734 4.48124
lowerback 29.901 2.30279 1.21856
upperback 10.2451 3.79204 3.24466
thorax -5.02152 1.91276 1.6293
lowerneck -14.0936 -7.71269 -15.4876
upperneck 30.9936 -8.05753 5.68372
head 13.8441 -4.41259 3.62068
rclavicle -7.79236e-014 -3.49861e-014
rhumerus 11.0337 12.7795 -74.7993
rradius 41.7062
rwrist 25.523
rhand -51.3993 28.038
rfingers 7.12502
rthumb -23.9316 -0.490653
lclavicle -7.79236e-014 -3.49861e-014
lhumerus -22.7116 -39.3423 99.5519
lradius 77.4618
lwrist 8.78217
lhand -26.5171 32.926
lfingers 7.12502
lthumb 0.0463178 62.9057
rfemur -44.7866 -16.6727 19.327
rtibia 40.0275
rfoot -9.97582 -11.9469
rtoes 0.724028
lfemur -41.3265 -2.34195 -21.1502
ltibia 25.6082
lfoot -1.3346 -9.47145
ltoes 0.0407795
603
root 2.15188 17.7549 6.60326 23.0731 31.6337 4.66647
lowerback 30.3571 2.33208 1.25696
upperback 10.4461 3.85462 3.28116
thorax -5.00552 1.94452 1.6175
lowerneck -14.3717 -7.85417 -15.7089
upperneck 30.717 -8.23039 5.92544
head 13.8329 -4.47358 3.71083
rclavicle 1.57437e-013 -9.54166e-015
rhumerus 12.1739 12.2532 -74.4828
rradius 40.8967
rwrist 25.3257
rhand -51.8024 27.9987
rfingers 7.12502
rthumb -24.3181 -0.478722
lclavicle 1.57437e-013 -9.54166e-015
lhumerus -22.5922 -39.9395 99.444
lradius 77.4355
lwrist 8.13736
lhand -26.6432 32.7908
lfingers 7.12502
lthumb -0.0755062 62.7706
rfemur -45.8793 -17.0374 19.5066
rtibia 40.734
rfoot -10.1902 -11.6815
rtoes 1.12695
lfemur -42.2882 -2.03606 -21.4648
ltibia 26.1656
lfoot -1.37398 -9.9751
ltoes 0.188999
604
root 2.12649 17.7274 6.58139 23.634 31.7932 4.94354
lowerback 30.9223 2.34621 1.21272
upperback 10.6001 3.88495 3.36355
thorax -5.0979 1.95838 1.70989
lowerneck -14.5525 -7.9935 -15.8975
upperneck 30.4573 -8.3807 6.04231
head 13.7984 -4.53722 3.75101
rclavicle -3.18055e-014 -7.95139e-015
rhumerus 13.2291 11.7554 -74.1677
rradius 40.0959
rwrist 25.2779
rhand -52.1944 27.9997
rfingers 7.12502
rthumb -24.6939 -0.426778
lclavicle -3.18055e-014 -7.95139e-015
lhumerus -22.5785 -40.4377 99.4498
lradius 77.4827
lwrist 7.41891
lhand -26.6378 32.1631
lfingers 7.12502
lthumb -0.0702816 62.1428
rfemur -46.8544 -17.3366 19.5625
rtibia 41.4001
rfoot -10.3256 -11.6178
rtoes 1.35683
lfemur -43.1791 -1.8603 -21.81
ltibia 26.6826
lfoot -1.38681 -10.4851
ltoes 0.120753
605
root 2.10365 17.6986 6.55835 24.1959 31.8838 5.25976
lowerback 31.5258 2.37969 1.12601
upperback 10.7221 3.92601 3.42666
thorax -5.24297 1.97611 1.79978
lowerneck -14.7406 -8.1114 -15.9808
upperneck 30.2477 -8.47333 5.99184
head 13.765 -4.58483 3.71684
rclavicle 3.18055e-015 -1.27222e-014
rhumerus 14.2217 11.2204 -73.9147
rradius 39.3171
rwrist 25.2613
rhand -52.3235 28.0955
rfingers 7.12502
rthumb -24.8176 -0.314041
lclavicle 3.18055e-015 -1.27222e-014
lhumerus -22.5489 -40.9856 99.4873
lradius 77.4826
lwrist 6.86658
lhand -27.0444 30.6593
lfingers 7.12502
lthumb -0.463018 60.6385
rfemur -47.8069 -17.6469 19.5661
rtibia 42.0259
rfoot -10.4655 -11.4653
rtoes 1.41636
lfemur -44.0297 -1.71611 -22.1936
ltibia 27.1726
lfoot -1.39189 -10.9292
ltoes 0.0884365
606
root 2.08771 17.6725 6.54037 24.6205 31.9029 5.50033
lowerback 32.1087 2.40083 1.08857
upperback 10.888 3.95991 3.44802
thorax -5.31982 1.99233 1.81935
lowerneck -14.9068 -8.18356 -16.0392
upperneck 30.0024 -8.54161 6.03092
head 13.7099 -4.60888 3.71961
rclavicle -5.24792e-014 -3.4191e-014
rhumerus 15.1181 10.4125 -73.9468
rradius 38.6046
rwrist 25.5047
rhand -52.4526 28.4425
rfingers 7.12502
rthumb -24.9413 0.0500671
lclavicle -5.24792e-014 -3.4191e-014
lhumerus -22.615 -41.4457 99.4824
lradius 77.4777
lwrist 6.2847
lhand -27.2147 28.9159
lfingers 7.12502
lthumb -0.627424 58.8948
rfemur -48.6368 -18.0583 19.65
rtibia 42.6224
rfoot -10.6041 -11.1584
rtoes 1.08389
lfemur -44.7235 -1.54014 -22.5362
ltibia 27.6665
lfoot -1.41948 -11.2869
ltoes 0.614422
607
root 2.06934 17.647 6.52704 24.9682 31.9354 5.72707
lowerback 32.71 2.43261 1.01037
upperback 11.0821 3.99705 3.48674
thorax -5.37356 2.00984 1.88088
lowerneck -14.892 -8.25071 -16.2085
upperneck 29.6205 -8.65434 6.2423
head 13.5795 -4.64447 3.80425
rclavicle 1.43125e-014 1.82882e-014
rhumerus 16.0705 9.4773 -74.1124
rradius 37.8739
rwrist 25.9514
rhand -52.6194 28.4294
rfingers 7.12502
rthumb -25.1011 0.0592806
lclavicle 1.43125e-014 1.82882e-014
lhumerus -22.7465 -41.8969 99.4514
lradius 77.5639
lwrist 5.77866
lhand -27.1059 27.5625
lfingers 7.12502
lthumb -0.522405 57.5416
rfemur -49.3705 -18.4168 19.7136
rtibia 43.204
rfoot -10.6928 -10.9254
rtoes 0.576009
lfemur -45.3411 -1.20929 -22.9569
ltibia 28.1815
lfoot -1.4881 -11.7823
ltoes 1.29176
